<?xml version="1.0" encoding="us-ascii" standalone="no"?><svg xmlns="http://www.w3.org/2000/svg" xmlns:xlink="http://www.w3.org/1999/xlink" contentStyleType="text/css" height="2134px" preserveAspectRatio="none" style="width:2364px;height:2134px;background:#FFFFFF;" version="1.1" viewBox="0 0 2364 2134" width="2364px" zoomAndPan="magnify"><defs/><g><text fill="#000000" font-family="sans-serif" font-size="14" font-weight="bold" lengthAdjust="spacing" textLength="344.4375" x="1011.2813" y="29.5332">Smart-Monitor &#8212; Self-Healing Platform FlowChart</text><rect fill="#FFFFFF" height="183.4609" style="stroke:#181818;stroke-width:1.0;" width="10" x="1043.5" y="463.75"/><rect fill="#FFFFFF" height="226.6484" style="stroke:#181818;stroke-width:1.0;" width="10" x="1459.5" y="693.9141"/><rect fill="#FFFFFF" height="451.2734" style="stroke:#181818;stroke-width:1.0;" width="10" x="1666.5" y="968.2656"/><rect fill="none" height="127.5938" style="stroke:#000000;stroke-width:1.5;" width="1074" x="809.5" y="785.9688"/><rect fill="none" height="499.9766" style="stroke:#000000;stroke-width:1.5;" width="1883.5" x="10" y="927.5625"/><rect fill="none" height="109.4063" style="stroke:#000000;stroke-width:1.5;" width="1744" x="20" y="983.2656"/><rect fill="none" height="222.8125" style="stroke:#000000;stroke-width:1.5;" width="1590.5" x="293" y="1106.6719"/><rect fill="none" height="95.4063" style="stroke:#000000;stroke-width:1.5;" width="1518.5" x="809.5" y="1441.5391"/><rect fill="none" height="109.4063" style="stroke:#000000;stroke-width:1.5;" width="1518.5" x="809.5" y="1550.9453"/><rect fill="none" height="183.1094" style="stroke:#000000;stroke-width:1.5;" width="1723" x="605" y="1674.3516"/><line style="stroke:#181818;stroke-width:0.5;stroke-dasharray:5.0,5.0;" x1="97" x2="97" y1="138.8281" y2="2034.9219"/><line style="stroke:#181818;stroke-width:0.5;stroke-dasharray:5.0,5.0;" x1="383" x2="383" y1="138.8281" y2="2034.9219"/><line style="stroke:#181818;stroke-width:0.5;stroke-dasharray:5.0,5.0;" x1="544" x2="544" y1="138.8281" y2="2034.9219"/><line style="stroke:#181818;stroke-width:0.5;stroke-dasharray:5.0,5.0;" x1="665" x2="665" y1="138.8281" y2="2034.9219"/><line style="stroke:#181818;stroke-width:0.5;stroke-dasharray:5.0,5.0;" x1="891.5" x2="891.5" y1="138.8281" y2="2034.9219"/><line style="stroke:#181818;stroke-width:0.5;stroke-dasharray:5.0,5.0;" x1="1048.5" x2="1048.5" y1="138.8281" y2="2034.9219"/><line style="stroke:#181818;stroke-width:0.5;stroke-dasharray:5.0,5.0;" x1="1464" x2="1464" y1="138.8281" y2="2034.9219"/><line style="stroke:#181818;stroke-width:0.5;stroke-dasharray:5.0,5.0;" x1="1671" x2="1671" y1="138.8281" y2="2034.9219"/><line style="stroke:#181818;stroke-width:0.5;stroke-dasharray:5.0,5.0;" x1="1837.5" x2="1837.5" y1="138.8281" y2="2034.9219"/><line style="stroke:#181818;stroke-width:0.5;stroke-dasharray:5.0,5.0;" x1="1942.5" x2="1942.5" y1="138.8281" y2="2034.9219"/><line style="stroke:#181818;stroke-width:0.5;stroke-dasharray:5.0,5.0;" x1="2096.5" x2="2096.5" y1="138.8281" y2="2034.9219"/><line style="stroke:#181818;stroke-width:0.5;stroke-dasharray:5.0,5.0;" x1="2259" x2="2259" y1="138.8281" y2="2034.9219"/><rect fill="#E2E2F0" height="49.2188" rx="2.5" ry="2.5" style="stroke:#181818;stroke-width:0.5;" width="135" x="30" y="88.6094"/><text fill="#000000" font-family="sans-serif" font-size="14" lengthAdjust="spacing" textLength="121" x="37" y="110.1426">Orchestrator/Agent</text><text fill="#000000" font-family="sans-serif" font-size="14" lengthAdjust="spacing" textLength="116" x="39.5" y="127.752">&#171;sm-orchestrator&#187;</text><rect fill="#E2E2F0" height="49.2188" rx="2.5" ry="2.5" style="stroke:#181818;stroke-width:0.5;" width="135" x="30" y="2033.9219"/><text fill="#000000" font-family="sans-serif" font-size="14" lengthAdjust="spacing" textLength="121" x="37" y="2055.4551">Orchestrator/Agent</text><text fill="#000000" font-family="sans-serif" font-size="14" lengthAdjust="spacing" textLength="116" x="39.5" y="2073.0645">&#171;sm-orchestrator&#187;</text><rect fill="#E2E2F0" height="49.2188" rx="2.5" ry="2.5" style="stroke:#181818;stroke-width:0.5;" width="119" x="324" y="88.6094"/><text fill="#000000" font-family="sans-serif" font-size="14" lengthAdjust="spacing" textLength="105" x="331" y="110.1426">systemd (D-Bus)</text><text fill="#000000" font-family="sans-serif" font-size="14" lengthAdjust="spacing" textLength="91" x="338" y="127.752">/mnt /run/dbus</text><rect fill="#E2E2F0" height="49.2188" rx="2.5" ry="2.5" style="stroke:#181818;stroke-width:0.5;" width="119" x="324" y="2033.9219"/><text fill="#000000" font-family="sans-serif" font-size="14" lengthAdjust="spacing" textLength="105" x="331" y="2055.4551">systemd (D-Bus)</text><text fill="#000000" font-family="sans-serif" font-size="14" lengthAdjust="spacing" textLength="91" x="338" y="2073.0645">/mnt /run/dbus</text><rect fill="#E2E2F0" height="49.2188" rx="2.5" ry="2.5" style="stroke:#181818;stroke-width:0.5;" width="121" x="484" y="88.6094"/><text fill="#000000" font-family="sans-serif" font-size="14" lengthAdjust="spacing" textLength="107" x="491" y="110.1426">Host Helper (opt)</text><text fill="#000000" font-family="sans-serif" font-size="14" lengthAdjust="spacing" textLength="78" x="505.5" y="127.752">root-priv API</text><rect fill="#E2E2F0" height="49.2188" rx="2.5" ry="2.5" style="stroke:#181818;stroke-width:0.5;" width="121" x="484" y="2033.9219"/><text fill="#000000" font-family="sans-serif" font-size="14" lengthAdjust="spacing" textLength="107" x="491" y="2055.4551">Host Helper (opt)</text><text fill="#000000" font-family="sans-serif" font-size="14" lengthAdjust="spacing" textLength="78" x="505.5" y="2073.0645">root-priv API</text><text fill="#000000" font-family="sans-serif" font-size="14" lengthAdjust="spacing" textLength="77" x="623.5" y="118.1426">PostgreSQL</text><text fill="#000000" font-family="sans-serif" font-size="14" lengthAdjust="spacing" textLength="94" x="615" y="135.752">&#171;sm-postgres&#187;</text><path d="M647,67.6094 C647,57.6094 665,57.6094 665,57.6094 C665,57.6094 683,57.6094 683,67.6094 L683,93.6094 C683,103.6094 665,103.6094 665,103.6094 C665,103.6094 647,103.6094 647,93.6094 L647,67.6094 " fill="#E2E2F0" style="stroke:#181818;stroke-width:1.5;"/><path d="M647,67.6094 C647,77.6094 665,77.6094 665,77.6094 C665,77.6094 683,77.6094 683,67.6094 " fill="none" style="stroke:#181818;stroke-width:1.5;"/><text fill="#000000" font-family="sans-serif" font-size="14" lengthAdjust="spacing" textLength="77" x="623.5" y="2048.4551">PostgreSQL</text><text fill="#000000" font-family="sans-serif" font-size="14" lengthAdjust="spacing" textLength="94" x="615" y="2066.0645">&#171;sm-postgres&#187;</text><path d="M647,2079.1406 C647,2069.1406 665,2069.1406 665,2069.1406 C665,2069.1406 683,2069.1406 683,2079.1406 L683,2105.1406 C683,2115.1406 665,2115.1406 665,2115.1406 C665,2115.1406 647,2115.1406 647,2105.1406 L647,2079.1406 " fill="#E2E2F0" style="stroke:#181818;stroke-width:1.5;"/><path d="M647,2079.1406 C647,2089.1406 665,2089.1406 665,2089.1406 C665,2089.1406 683,2089.1406 683,2079.1406 " fill="none" style="stroke:#181818;stroke-width:1.5;"/><rect fill="#E2E2F0" height="49.2188" rx="2.5" ry="2.5" style="stroke:#181818;stroke-width:0.5;" width="145" x="819.5" y="88.6094"/><text fill="#000000" font-family="sans-serif" font-size="14" lengthAdjust="spacing" textLength="131" x="826.5" y="110.1426">Flask API (Gunicorn)</text><text fill="#000000" font-family="sans-serif" font-size="14" lengthAdjust="spacing" textLength="58" x="863" y="127.752">&#171;sm-gui&#187;</text><rect fill="#E2E2F0" height="49.2188" rx="2.5" ry="2.5" style="stroke:#181818;stroke-width:0.5;" width="145" x="819.5" y="2033.9219"/><text fill="#000000" font-family="sans-serif" font-size="14" lengthAdjust="spacing" textLength="131" x="826.5" y="2055.4551">Flask API (Gunicorn)</text><text fill="#000000" font-family="sans-serif" font-size="14" lengthAdjust="spacing" textLength="58" x="863" y="2073.0645">&#171;sm-gui&#187;</text><rect fill="#E2E2F0" height="49.2188" rx="2.5" ry="2.5" style="stroke:#181818;stroke-width:0.5;" width="148" x="974.5" y="88.6094"/><text fill="#000000" font-family="sans-serif" font-size="14" lengthAdjust="spacing" textLength="106" x="995.5" y="110.1426">Classifier Engine</text><text fill="#000000" font-family="sans-serif" font-size="14" lengthAdjust="spacing" textLength="134" x="981.5" y="127.752">(heuristics/baselines)</text><rect fill="#E2E2F0" height="49.2188" rx="2.5" ry="2.5" style="stroke:#181818;stroke-width:0.5;" width="148" x="974.5" y="2033.9219"/><text fill="#000000" font-family="sans-serif" font-size="14" lengthAdjust="spacing" textLength="106" x="995.5" y="2055.4551">Classifier Engine</text><text fill="#000000" font-family="sans-serif" font-size="14" lengthAdjust="spacing" textLength="134" x="981.5" y="2073.0645">(heuristics/baselines)</text><rect fill="#E2E2F0" height="49.2188" rx="2.5" ry="2.5" style="stroke:#181818;stroke-width:0.5;" width="211" x="1359" y="88.6094"/><text fill="#000000" font-family="sans-serif" font-size="14" lengthAdjust="spacing" textLength="134" x="1397.5" y="110.1426">Policy &amp; Safety Layer</text><text fill="#000000" font-family="sans-serif" font-size="14" lengthAdjust="spacing" textLength="197" x="1366" y="127.752">(allow-list, cooldowns, windows)</text><rect fill="#E2E2F0" height="49.2188" rx="2.5" ry="2.5" style="stroke:#181818;stroke-width:0.5;" width="211" x="1359" y="2033.9219"/><text fill="#000000" font-family="sans-serif" font-size="14" lengthAdjust="spacing" textLength="134" x="1397.5" y="2055.4551">Policy &amp; Safety Layer</text><text fill="#000000" font-family="sans-serif" font-size="14" lengthAdjust="spacing" textLength="197" x="1366" y="2073.0645">(allow-list, cooldowns, windows)</text><rect fill="#E2E2F0" height="49.2188" rx="2.5" ry="2.5" style="stroke:#181818;stroke-width:0.5;" width="165" x="1589" y="88.6094"/><text fill="#000000" font-family="sans-serif" font-size="14" lengthAdjust="spacing" textLength="73" x="1635" y="110.1426">Remediator</text><text fill="#000000" font-family="sans-serif" font-size="14" lengthAdjust="spacing" textLength="151" x="1596" y="127.752">(actions, backoff, verify)</text><rect fill="#E2E2F0" height="49.2188" rx="2.5" ry="2.5" style="stroke:#181818;stroke-width:0.5;" width="165" x="1589" y="2033.9219"/><text fill="#000000" font-family="sans-serif" font-size="14" lengthAdjust="spacing" textLength="73" x="1635" y="2055.4551">Remediator</text><text fill="#000000" font-family="sans-serif" font-size="14" lengthAdjust="spacing" textLength="151" x="1596" y="2073.0645">(actions, backoff, verify)</text><rect fill="#E2E2F0" height="49.2188" rx="2.5" ry="2.5" style="stroke:#181818;stroke-width:0.5;" width="72" x="1801.5" y="88.6094"/><text fill="#000000" font-family="sans-serif" font-size="14" lengthAdjust="spacing" textLength="31" x="1822" y="110.1426">Logs</text><text fill="#000000" font-family="sans-serif" font-size="14" lengthAdjust="spacing" textLength="58" x="1808.5" y="127.752">&#171;log-file&#187;</text><rect fill="#E2E2F0" height="49.2188" rx="2.5" ry="2.5" style="stroke:#181818;stroke-width:0.5;" width="72" x="1801.5" y="2033.9219"/><text fill="#000000" font-family="sans-serif" font-size="14" lengthAdjust="spacing" textLength="31" x="1822" y="2055.4551">Logs</text><text fill="#000000" font-family="sans-serif" font-size="14" lengthAdjust="spacing" textLength="58" x="1808.5" y="2073.0645">&#171;log-file&#187;</text><rect fill="#E2E2F0" height="49.2188" rx="2.5" ry="2.5" style="stroke:#181818;stroke-width:0.5;" width="119" x="1883.5" y="88.6094"/><text fill="#000000" font-family="sans-serif" font-size="14" lengthAdjust="spacing" textLength="105" x="1890.5" y="110.1426">Nginx (TLS/SSE)</text><text fill="#000000" font-family="sans-serif" font-size="14" lengthAdjust="spacing" textLength="72" x="1907" y="127.752">&#171;sm-nginx&#187;</text><rect fill="#E2E2F0" height="49.2188" rx="2.5" ry="2.5" style="stroke:#181818;stroke-width:0.5;" width="119" x="1883.5" y="2033.9219"/><text fill="#000000" font-family="sans-serif" font-size="14" lengthAdjust="spacing" textLength="105" x="1890.5" y="2055.4551">Nginx (TLS/SSE)</text><text fill="#000000" font-family="sans-serif" font-size="14" lengthAdjust="spacing" textLength="72" x="1907" y="2073.0645">&#171;sm-nginx&#187;</text><rect fill="#E2E2F0" height="49.2188" rx="2.5" ry="2.5" style="stroke:#181818;stroke-width:0.5;" width="123" x="2035.5" y="88.6094"/><text fill="#000000" font-family="sans-serif" font-size="14" lengthAdjust="spacing" textLength="107" x="2043.5" y="110.1426">Cloudflared (opt)</text><text fill="#000000" font-family="sans-serif" font-size="14" lengthAdjust="spacing" textLength="109" x="2042.5" y="127.752">&#171;sm-cloudflared&#187;</text><rect fill="#E2E2F0" height="49.2188" rx="2.5" ry="2.5" style="stroke:#181818;stroke-width:0.5;" width="123" x="2035.5" y="2033.9219"/><text fill="#000000" font-family="sans-serif" font-size="14" lengthAdjust="spacing" textLength="107" x="2043.5" y="2055.4551">Cloudflared (opt)</text><text fill="#000000" font-family="sans-serif" font-size="14" lengthAdjust="spacing" textLength="109" x="2042.5" y="2073.0645">&#171;sm-cloudflared&#187;</text><text fill="#000000" font-family="sans-serif" font-size="14" lengthAdjust="spacing" textLength="112" x="2200" y="118.1426">Engineer Browser</text><text fill="#000000" font-family="sans-serif" font-size="14" lengthAdjust="spacing" textLength="109" x="2201.5" y="135.752">(SSE dashboard)</text><ellipse cx="2259" cy="52.1094" fill="#E2E2F0" rx="8" ry="8" style="stroke:#181818;stroke-width:0.5;"/><path d="M2259,60.1094 L2259,87.1094 M2246,68.1094 L2272,68.1094 M2259,87.1094 L2246,102.1094 M2259,87.1094 L2272,102.1094 " fill="none" style="stroke:#181818;stroke-width:0.5;"/><text fill="#000000" font-family="sans-serif" font-size="14" lengthAdjust="spacing" textLength="112" x="2200" y="2048.4551">Engineer Browser</text><text fill="#000000" font-family="sans-serif" font-size="14" lengthAdjust="spacing" textLength="109" x="2201.5" y="2066.0645">(SSE dashboard)</text><ellipse cx="2259" cy="2077.6406" fill="#E2E2F0" rx="8" ry="8" style="stroke:#181818;stroke-width:0.5;"/><path d="M2259,2085.6406 L2259,2112.6406 M2246,2093.6406 L2272,2093.6406 M2259,2112.6406 L2246,2127.6406 M2259,2112.6406 L2272,2127.6406 " fill="none" style="stroke:#181818;stroke-width:0.5;"/><rect fill="#FFFFFF" height="183.4609" style="stroke:#181818;stroke-width:1.0;" width="10" x="1043.5" y="463.75"/><rect fill="#FFFFFF" height="226.6484" style="stroke:#181818;stroke-width:1.0;" width="10" x="1459.5" y="693.9141"/><rect fill="#FFFFFF" height="451.2734" style="stroke:#181818;stroke-width:1.0;" width="10" x="1666.5" y="968.2656"/><polygon fill="#FEFFDD" points="46,153.8281,2309,153.8281,2319,206.8281,2309,259.8281,46,259.8281,36,206.8281,46,153.8281" style="stroke:#181818;stroke-width:0.5;"/><text fill="#000000" font-family="sans-serif" font-size="13" lengthAdjust="spacing" textLength="259" x="1048" y="171.3232">Smart-Monitor LAB stack (docker-compose):</text><text fill="#000000" font-family="sans-serif" font-size="13" lengthAdjust="spacing" textLength="185" x="1048" y="187.6748">- sm-orchestrator-lab (privileged)</text><text fill="#000000" font-family="sans-serif" font-size="13" lengthAdjust="spacing" textLength="172" x="1048" y="204.0264">- sm-gui (Flask/Gunicorn API)</text><text fill="#000000" font-family="sans-serif" font-size="13" lengthAdjust="spacing" textLength="165" x="1048" y="220.3779">- sm-postgres (state + audit)</text><text fill="#000000" font-family="sans-serif" font-size="13" lengthAdjust="spacing" textLength="139" x="1048" y="236.7295">- sm-nginx (TLS + SSE)</text><text fill="#000000" font-family="sans-serif" font-size="13" lengthAdjust="spacing" textLength="222" x="1048" y="253.0811">- sm-cloudflared (optional- secure port)</text><polygon fill="#181818" points="371.5,315.9922,381.5,319.9922,371.5,323.9922,375.5,319.9922" style="stroke:#181818;stroke-width:1.0;"/><line style="stroke:#181818;stroke-width:1.0;" x1="97.5" x2="377.5" y1="319.9922" y2="319.9922"/><text fill="#000000" font-family="sans-serif" font-size="13" lengthAdjust="spacing" textLength="178" x="104.5" y="282.4326">Query service states via D-Bus</text><text fill="#000000" font-family="sans-serif" font-size="13" lengthAdjust="spacing" textLength="262" x="104.5" y="298.7842">(is-active, show SubState/Type/UnitFileState)</text><text fill="#000000" font-family="sans-serif" font-size="13" lengthAdjust="spacing" textLength="224" x="104.5" y="315.1357">+ read /proc,/sys (CPU, mem, disk IO)</text><path d="M102,332.9922 L102,358.9922 L627,358.9922 L627,342.9922 L617,332.9922 L102,332.9922 " fill="#FEFFDD" style="stroke:#181818;stroke-width:0.5;"/><path d="M617,332.9922 L617,342.9922 L627,342.9922 L617,332.9922 " fill="#FEFFDD" style="stroke:#181818;stroke-width:0.5;"/><text fill="#000000" font-family="sans-serif" font-size="13" lengthAdjust="spacing" textLength="504" x="108" y="351.4873">Normalize raw states &#8594; {running|stopped|failed|unknown}\nBuild metrics &amp; events batch</text><polygon fill="#181818" points="653,399.0469,663,403.0469,653,407.0469,657,403.0469" style="stroke:#181818;stroke-width:1.0;"/><line style="stroke:#181818;stroke-width:1.0;" x1="97.5" x2="659" y1="403.0469" y2="403.0469"/><text fill="#000000" font-family="sans-serif" font-size="13" lengthAdjust="spacing" textLength="183" x="104.5" y="381.8389">INSERT metrics &amp; events batch</text><text fill="#000000" font-family="sans-serif" font-size="13" lengthAdjust="spacing" textLength="95" x="104.5" y="398.1904">(using DB driver)</text><polygon fill="#181818" points="108.5,429.3984,98.5,433.3984,108.5,437.3984,104.5,433.3984" style="stroke:#181818;stroke-width:1.0;"/><line style="stroke:#181818;stroke-width:1.0;stroke-dasharray:2.0,2.0;" x1="102.5" x2="664" y1="433.3984" y2="433.3984"/><text fill="#000000" font-family="sans-serif" font-size="13" lengthAdjust="spacing" textLength="21" x="114.5" y="428.542">ack</text><polygon fill="#181818" points="1031.5,459.75,1041.5,463.75,1031.5,467.75,1035.5,463.75" style="stroke:#181818;stroke-width:1.0;"/><line style="stroke:#181818;stroke-width:1.0;" x1="665" x2="1037.5" y1="463.75" y2="463.75"/><text fill="#000000" font-family="sans-serif" font-size="13" lengthAdjust="spacing" textLength="135" x="672" y="458.8936">notifyNewBatch(events)</text><polygon fill="#181818" points="676,490.1016,666,494.1016,676,498.1016,672,494.1016" style="stroke:#181818;stroke-width:1.0;"/><line style="stroke:#181818;stroke-width:1.0;" x1="670" x2="1042.5" y1="494.1016" y2="494.1016"/><text fill="#000000" font-family="sans-serif" font-size="13" lengthAdjust="spacing" textLength="223" x="682" y="489.2451">Read recent window (&#916;t) for correlation</text><polygon fill="#181818" points="1031.5,520.4531,1041.5,524.4531,1031.5,528.4531,1035.5,524.4531" style="stroke:#181818;stroke-width:1.0;"/><line style="stroke:#181818;stroke-width:1.0;stroke-dasharray:2.0,2.0;" x1="665" x2="1037.5" y1="524.4531" y2="524.4531"/><text fill="#000000" font-family="sans-serif" font-size="13" lengthAdjust="spacing" textLength="159" x="672" y="519.5967">timeseries + service history</text><line style="stroke:#181818;stroke-width:1.0;" x1="1053.5" x2="1095.5" y1="603.8594" y2="603.8594"/><line style="stroke:#181818;stroke-width:1.0;" x1="1095.5" x2="1095.5" y1="603.8594" y2="616.8594"/><line style="stroke:#181818;stroke-width:1.0;" x1="1054.5" x2="1095.5" y1="616.8594" y2="616.8594"/><polygon fill="#181818" points="1064.5,612.8594,1054.5,616.8594,1064.5,620.8594,1060.5,616.8594" style="stroke:#181818;stroke-width:1.0;"/><text fill="#000000" font-family="sans-serif" font-size="13" lengthAdjust="spacing" textLength="227" x="1060.5" y="549.9482">Heuristics + baselines + state machine</text><text fill="#000000" font-family="sans-serif" font-size="13" lengthAdjust="spacing" textLength="221" x="1060.5" y="566.2998">&#8226; failed + retry_exceeded &#8594; INCIDENT</text><text fill="#000000" font-family="sans-serif" font-size="13" lengthAdjust="spacing" textLength="392" x="1060.5" y="582.6514">&#8226; CPU z-score&gt;k + OOM + service down &#8594; MEMORY_PRESSURE</text><text fill="#000000" font-family="sans-serif" font-size="13" lengthAdjust="spacing" textLength="235" x="1060.5" y="599.0029">&#8226; flapping(rate) &gt; threshold &#8594; FLAPPING</text><polygon fill="#181818" points="676,643.2109,666,647.2109,676,651.2109,672,647.2109" style="stroke:#181818;stroke-width:1.0;"/><line style="stroke:#181818;stroke-width:1.0;" x1="670" x2="1047.5" y1="647.2109" y2="647.2109"/><text fill="#000000" font-family="sans-serif" font-size="13" lengthAdjust="spacing" textLength="244" x="682" y="642.3545">INSERT classifications(labels, confidence)</text><polygon fill="#181818" points="1447.5,689.9141,1457.5,693.9141,1447.5,697.9141,1451.5,693.9141" style="stroke:#181818;stroke-width:1.0;"/><line style="stroke:#181818;stroke-width:1.0;" x1="892" x2="1453.5" y1="693.9141" y2="693.9141"/><text fill="#000000" font-family="sans-serif" font-size="13" lengthAdjust="spacing" textLength="151" x="899" y="672.7061">evaluate(decisionRequest)</text><text fill="#000000" font-family="sans-serif" font-size="13" lengthAdjust="spacing" textLength="235" x="899" y="689.0576">(labels, service, host, cooldown, window)</text><polygon fill="#181818" points="676,736.6172,666,740.6172,676,744.6172,672,740.6172" style="stroke:#181818;stroke-width:1.0;"/><line style="stroke:#181818;stroke-width:1.0;" x1="670" x2="1458.5" y1="740.6172" y2="740.6172"/><text fill="#000000" font-family="sans-serif" font-size="13" lengthAdjust="spacing" textLength="343" x="682" y="719.4092">read policy (approved_services.json snapshot) &amp; cooldowns</text><text fill="#000000" font-family="sans-serif" font-size="13" lengthAdjust="spacing" textLength="145" x="682" y="735.7607">+ last actions for this svc</text><polygon fill="#181818" points="1447.5,766.9688,1457.5,770.9688,1447.5,774.9688,1451.5,770.9688" style="stroke:#181818;stroke-width:1.0;"/><line style="stroke:#181818;stroke-width:1.0;stroke-dasharray:2.0,2.0;" x1="665" x2="1453.5" y1="770.9688" y2="770.9688"/><text fill="#000000" font-family="sans-serif" font-size="13" lengthAdjust="spacing" textLength="65" x="672" y="766.1123">policy rows</text><path d="M809.5,785.9688 L870.5,785.9688 L870.5,794.3203 L860.5,804.3203 L809.5,804.3203 L809.5,785.9688 " fill="#EEEEEE" style="stroke:#000000;stroke-width:1.5;"/><rect fill="none" height="127.5938" style="stroke:#000000;stroke-width:1.5;" width="1074" x="809.5" y="785.9688"/><text fill="#000000" font-family="sans-serif" font-size="13" font-weight="bold" lengthAdjust="spacing" textLength="16" x="824.5" y="800.4639">alt</text><text fill="#000000" font-family="sans-serif" font-size="11" font-weight="bold" lengthAdjust="spacing" textLength="104" x="885.5" y="799.3877">[Allowed by policy]</text><polygon fill="#181818" points="903,839.0234,893,843.0234,903,847.0234,899,843.0234" style="stroke:#181818;stroke-width:1.0;"/><line style="stroke:#181818;stroke-width:1.0;stroke-dasharray:2.0,2.0;" x1="897" x2="1458.5" y1="843.0234" y2="843.0234"/><text fill="#000000" font-family="sans-serif" font-size="13" lengthAdjust="spacing" textLength="210" x="909" y="821.8154">APPROVED(actionSpec, guardrails)</text><text fill="#000000" font-family="sans-serif" font-size="13" lengthAdjust="spacing" textLength="176" x="909" y="838.167">(max_retries, backoff, timeout)</text><line style="stroke:#000000;stroke-width:1.0;stroke-dasharray:2.0,2.0;" x1="809.5" x2="1883.5" y1="852.0234" y2="852.0234"/><text fill="#000000" font-family="sans-serif" font-size="11" font-weight="bold" lengthAdjust="spacing" textLength="98" x="814.5" y="863.4424">[Denied / Dry-Run]</text><polygon fill="#181818" points="1825.5,901.5625,1835.5,905.5625,1825.5,909.5625,1829.5,905.5625" style="stroke:#181818;stroke-width:1.0;"/><line style="stroke:#181818;stroke-width:1.0;stroke-dasharray:2.0,2.0;" x1="1469.5" x2="1831.5" y1="905.5625" y2="905.5625"/><text fill="#000000" font-family="sans-serif" font-size="13" lengthAdjust="spacing" textLength="168" x="1476.5" y="884.3545">DENIED(reason) / DRY_RUN</text><text fill="#000000" font-family="sans-serif" font-size="13" lengthAdjust="spacing" textLength="53" x="1476.5" y="900.7061">(log only)</text><path d="M10,927.5625 L71,927.5625 L71,935.9141 L61,945.9141 L10,945.9141 L10,927.5625 " fill="#EEEEEE" style="stroke:#000000;stroke-width:1.5;"/><rect fill="none" height="499.9766" style="stroke:#000000;stroke-width:1.5;" width="1883.5" x="10" y="927.5625"/><text fill="#000000" font-family="sans-serif" font-size="13" font-weight="bold" lengthAdjust="spacing" textLength="16" x="25" y="942.0576">alt</text><text fill="#000000" font-family="sans-serif" font-size="11" font-weight="bold" lengthAdjust="spacing" textLength="66" x="86" y="940.9814">[APPROVED]</text><polygon fill="#181818" points="1654.5,964.2656,1664.5,968.2656,1654.5,972.2656,1658.5,968.2656" style="stroke:#181818;stroke-width:1.0;"/><line style="stroke:#181818;stroke-width:1.0;" x1="892" x2="1660.5" y1="968.2656" y2="968.2656"/><text fill="#000000" font-family="sans-serif" font-size="13" lengthAdjust="spacing" textLength="119" x="899" y="963.4092">execute(actionSpec)</text><path d="M20,983.2656 L85,983.2656 L85,991.6172 L75,1001.6172 L20,1001.6172 L20,983.2656 " fill="#EEEEEE" style="stroke:#000000;stroke-width:1.5;"/><rect fill="none" height="109.4063" style="stroke:#000000;stroke-width:1.5;" width="1744" x="20" y="983.2656"/><text fill="#000000" font-family="sans-serif" font-size="13" font-weight="bold" lengthAdjust="spacing" textLength="20" x="35" y="997.7607">opt</text><text fill="#000000" font-family="sans-serif" font-size="11" font-weight="bold" lengthAdjust="spacing" textLength="219" x="100" y="996.6846">[Lab (privileged agent executes locally)]</text><polygon fill="#181818" points="108.5,1019.9688,98.5,1023.9688,108.5,1027.9688,104.5,1023.9688" style="stroke:#181818;stroke-width:1.0;"/><line style="stroke:#181818;stroke-width:1.0;" x1="102.5" x2="1665.5" y1="1023.9688" y2="1023.9688"/><text fill="#000000" font-family="sans-serif" font-size="13" lengthAdjust="spacing" textLength="204" x="114.5" y="1019.1123">requestRemediation(service:restart)</text><polygon fill="#181818" points="371.5,1050.3203,381.5,1054.3203,371.5,1058.3203,375.5,1054.3203" style="stroke:#181818;stroke-width:1.0;"/><line style="stroke:#181818;stroke-width:1.0;" x1="97.5" x2="377.5" y1="1054.3203" y2="1054.3203"/><text fill="#000000" font-family="sans-serif" font-size="13" lengthAdjust="spacing" textLength="137" x="104.5" y="1049.4639">systemctl restart &lt;svc&gt;</text><polygon fill="#181818" points="108.5,1080.6719,98.5,1084.6719,108.5,1088.6719,104.5,1084.6719" style="stroke:#181818;stroke-width:1.0;"/><line style="stroke:#181818;stroke-width:1.0;stroke-dasharray:2.0,2.0;" x1="102.5" x2="382.5" y1="1084.6719" y2="1084.6719"/><text fill="#000000" font-family="sans-serif" font-size="13" lengthAdjust="spacing" textLength="155" x="114.5" y="1079.8154">result(exit code, SubState)</text><path d="M293,1106.6719 L358,1106.6719 L358,1115.0234 L348,1125.0234 L293,1125.0234 L293,1106.6719 " fill="#EEEEEE" style="stroke:#000000;stroke-width:1.5;"/><rect fill="none" height="222.8125" style="stroke:#000000;stroke-width:1.5;" width="1590.5" x="293" y="1106.6719"/><text fill="#000000" font-family="sans-serif" font-size="13" font-weight="bold" lengthAdjust="spacing" textLength="20" x="308" y="1121.167">opt</text><text fill="#000000" font-family="sans-serif" font-size="11" font-weight="bold" lengthAdjust="spacing" textLength="246" x="373" y="1120.0908">[Production Hardened host (optional helper)]</text><path d="M303,1130.0234 L303,1156.0234 L1544,1156.0234 L1544,1140.0234 L1534,1130.0234 L303,1130.0234 " fill="#FEFFDD" style="stroke:#181818;stroke-width:0.5;"/><path d="M1534,1130.0234 L1534,1140.0234 L1544,1140.0234 L1534,1130.0234 " fill="#FEFFDD" style="stroke:#181818;stroke-width:0.5;"/><text fill="#000000" font-family="sans-serif" font-size="13" lengthAdjust="spacing" textLength="309" x="764.5" y="1148.5186">Privileged actions only via API key\non hardened host</text><polygon fill="#181818" points="555.5,1196.0781,545.5,1200.0781,555.5,1204.0781,551.5,1200.0781" style="stroke:#181818;stroke-width:1.0;"/><line style="stroke:#181818;stroke-width:1.0;" x1="549.5" x2="1665.5" y1="1200.0781" y2="1200.0781"/><text fill="#000000" font-family="sans-serif" font-size="13" lengthAdjust="spacing" textLength="195" x="561.5" y="1178.8701">POST /actions/restart?svc=&lt;svc&gt;</text><text fill="#000000" font-family="sans-serif" font-size="13" lengthAdjust="spacing" textLength="138" x="561.5" y="1195.2217">(Authorization: API key)</text><polygon fill="#181818" points="394.5,1226.4297,384.5,1230.4297,394.5,1234.4297,390.5,1230.4297" style="stroke:#181818;stroke-width:1.0;"/><line style="stroke:#181818;stroke-width:1.0;" x1="388.5" x2="543.5" y1="1230.4297" y2="1230.4297"/><text fill="#000000" font-family="sans-serif" font-size="13" lengthAdjust="spacing" textLength="137" x="400.5" y="1225.5732">systemctl restart &lt;svc&gt;</text><polygon fill="#181818" points="532.5,1256.7813,542.5,1260.7813,532.5,1264.7813,536.5,1260.7813" style="stroke:#181818;stroke-width:1.0;"/><line style="stroke:#181818;stroke-width:1.0;stroke-dasharray:2.0,2.0;" x1="383.5" x2="538.5" y1="1260.7813" y2="1260.7813"/><text fill="#000000" font-family="sans-serif" font-size="13" lengthAdjust="spacing" textLength="32" x="390.5" y="1255.9248">result</text><polygon fill="#181818" points="1654.5,1287.1328,1664.5,1291.1328,1654.5,1295.1328,1658.5,1291.1328" style="stroke:#181818;stroke-width:1.0;"/><line style="stroke:#181818;stroke-width:1.0;stroke-dasharray:2.0,2.0;" x1="544.5" x2="1660.5" y1="1291.1328" y2="1291.1328"/><text fill="#000000" font-family="sans-serif" font-size="13" lengthAdjust="spacing" textLength="32" x="551.5" y="1286.2764">result</text><polygon fill="#181818" points="1825.5,1317.4844,1835.5,1321.4844,1825.5,1325.4844,1829.5,1321.4844" style="stroke:#181818;stroke-width:1.0;"/><line style="stroke:#181818;stroke-width:1.0;stroke-dasharray:2.0,2.0;" x1="1676.5" x2="1831.5" y1="1321.4844" y2="1321.4844"/><text fill="#000000" font-family="sans-serif" font-size="13" lengthAdjust="spacing" textLength="120" x="1683.5" y="1316.6279">Log results to log file</text><polygon fill="#181818" points="394.5,1354.8359,384.5,1358.8359,394.5,1362.8359,390.5,1358.8359" style="stroke:#181818;stroke-width:1.0;"/><line style="stroke:#181818;stroke-width:1.0;" x1="388.5" x2="1665.5" y1="1358.8359" y2="1358.8359"/><text fill="#000000" font-family="sans-serif" font-size="13" lengthAdjust="spacing" textLength="201" x="400.5" y="1353.9795">verify health (is-active) after backoff</text><polygon fill="#181818" points="1654.5,1385.1875,1664.5,1389.1875,1654.5,1393.1875,1658.5,1389.1875" style="stroke:#181818;stroke-width:1.0;"/><line style="stroke:#181818;stroke-width:1.0;stroke-dasharray:2.0,2.0;" x1="383.5" x2="1660.5" y1="1389.1875" y2="1389.1875"/><text fill="#000000" font-family="sans-serif" font-size="13" lengthAdjust="spacing" textLength="114" x="390.5" y="1384.3311">ActiveState=active?</text><polygon fill="#181818" points="676,1415.5391,666,1419.5391,676,1423.5391,672,1419.5391" style="stroke:#181818;stroke-width:1.0;"/><line style="stroke:#181818;stroke-width:1.0;" x1="670" x2="1670.5" y1="1419.5391" y2="1419.5391"/><text fill="#000000" font-family="sans-serif" font-size="13" lengthAdjust="spacing" textLength="247" x="682" y="1414.6826">INSERT actions(audit), outcomes, duration</text><path d="M809.5,1441.5391 L875.5,1441.5391 L875.5,1449.8906 L865.5,1459.8906 L809.5,1459.8906 L809.5,1441.5391 " fill="#EEEEEE" style="stroke:#000000;stroke-width:1.5;"/><rect fill="none" height="95.4063" style="stroke:#000000;stroke-width:1.5;" width="1518.5" x="809.5" y="1441.5391"/><text fill="#000000" font-family="sans-serif" font-size="13" font-weight="bold" lengthAdjust="spacing" textLength="21" x="824.5" y="1456.0342">par</text><text fill="#000000" font-family="sans-serif" font-size="11" font-weight="bold" lengthAdjust="spacing" textLength="105" x="890.5" y="1454.958">[Live stream (SSE)]</text><polygon fill="#181818" points="1931,1478.2422,1941,1482.2422,1931,1486.2422,1935,1482.2422" style="stroke:#181818;stroke-width:1.0;"/><line style="stroke:#181818;stroke-width:1.0;" x1="892" x2="1937" y1="1482.2422" y2="1482.2422"/><text fill="#000000" font-family="sans-serif" font-size="13" lengthAdjust="spacing" textLength="228" x="899" y="1477.3857">push events &#8594; /api/stream/alerts (SSE)</text><polygon fill="#181818" points="2247,1524.9453,2257,1528.9453,2247,1532.9453,2251,1528.9453" style="stroke:#181818;stroke-width:1.0;"/><line style="stroke:#181818;stroke-width:1.0;" x1="1943" x2="2253" y1="1528.9453" y2="1528.9453"/><text fill="#000000" font-family="sans-serif" font-size="13" lengthAdjust="spacing" textLength="152" x="1950" y="1507.7373">event: classification/action</text><text fill="#000000" font-family="sans-serif" font-size="13" lengthAdjust="spacing" textLength="194" x="1950" y="1524.0889">{id, svc, label, decision, outcome}</text><path d="M809.5,1550.9453 L874.5,1550.9453 L874.5,1559.2969 L864.5,1569.2969 L809.5,1569.2969 L809.5,1550.9453 " fill="#EEEEEE" style="stroke:#000000;stroke-width:1.5;"/><rect fill="none" height="109.4063" style="stroke:#000000;stroke-width:1.5;" width="1518.5" x="809.5" y="1550.9453"/><text fill="#000000" font-family="sans-serif" font-size="13" font-weight="bold" lengthAdjust="spacing" textLength="20" x="824.5" y="1565.4404">opt</text><text fill="#000000" font-family="sans-serif" font-size="11" font-weight="bold" lengthAdjust="spacing" textLength="139" x="889.5" y="1564.3643">[Public egress (optional)]</text><polygon fill="#181818" points="2108,1587.6484,2098,1591.6484,2108,1595.6484,2104,1591.6484" style="stroke:#181818;stroke-width:1.0;"/><line style="stroke:#181818;stroke-width:1.0;" x1="2102" x2="2258" y1="1591.6484" y2="1591.6484"/><text fill="#000000" font-family="sans-serif" font-size="13" lengthAdjust="spacing" textLength="138" x="2114" y="1586.792">https://&lt;tunnel-host&gt;/ &#8230;</text><polygon fill="#181818" points="1954,1618,1944,1622,1954,1626,1950,1622" style="stroke:#181818;stroke-width:1.0;"/><line style="stroke:#181818;stroke-width:1.0;" x1="1948" x2="2096" y1="1622" y2="1622"/><text fill="#000000" font-family="sans-serif" font-size="13" lengthAdjust="spacing" textLength="130" x="1960" y="1617.1436">proxied HTTPS (QUIC)</text><polygon fill="#181818" points="903,1648.3516,893,1652.3516,903,1656.3516,899,1652.3516" style="stroke:#181818;stroke-width:1.0;"/><line style="stroke:#181818;stroke-width:1.0;" x1="897" x2="1942" y1="1652.3516" y2="1652.3516"/><text fill="#000000" font-family="sans-serif" font-size="13" lengthAdjust="spacing" textLength="105" x="909" y="1647.4951">upstream to Flask</text><path d="M605,1674.3516 L841,1674.3516 L841,1682.7031 L831,1692.7031 L605,1692.7031 L605,1674.3516 " fill="#EEEEEE" style="stroke:#000000;stroke-width:1.5;"/><rect fill="none" height="183.1094" style="stroke:#000000;stroke-width:1.5;" width="1723" x="605" y="1674.3516"/><text fill="#000000" font-family="sans-serif" font-size="13" font-weight="bold" lengthAdjust="spacing" textLength="191" x="620" y="1688.8467">If remediation fails repeatedly</text><line style="stroke:#181818;stroke-width:1.0;" x1="1671.5" x2="1713.5" y1="1715.0547" y2="1715.0547"/><line style="stroke:#181818;stroke-width:1.0;" x1="1713.5" x2="1713.5" y1="1715.0547" y2="1728.0547"/><line style="stroke:#181818;stroke-width:1.0;" x1="1672.5" x2="1713.5" y1="1728.0547" y2="1728.0547"/><polygon fill="#181818" points="1682.5,1724.0547,1672.5,1728.0547,1682.5,1732.0547,1678.5,1728.0547" style="stroke:#181818;stroke-width:1.0;"/><text fill="#000000" font-family="sans-serif" font-size="13" lengthAdjust="spacing" textLength="152" x="1678.5" y="1710.1982">exponential backoff + jitter</text><polygon fill="#181818" points="1475.5,1754.4063,1465.5,1758.4063,1475.5,1762.4063,1471.5,1758.4063" style="stroke:#181818;stroke-width:1.0;"/><line style="stroke:#181818;stroke-width:1.0;" x1="1469.5" x2="1670.5" y1="1758.4063" y2="1758.4063"/><text fill="#000000" font-family="sans-serif" font-size="13" lengthAdjust="spacing" textLength="136" x="1481.5" y="1753.5498">circuitBreaker.trip?(svc)</text><polygon fill="#181818" points="1659.5,1784.7578,1669.5,1788.7578,1659.5,1792.7578,1663.5,1788.7578" style="stroke:#181818;stroke-width:1.0;"/><line style="stroke:#181818;stroke-width:1.0;stroke-dasharray:2.0,2.0;" x1="1464.5" x2="1665.5" y1="1788.7578" y2="1788.7578"/><text fill="#000000" font-family="sans-serif" font-size="13" lengthAdjust="spacing" textLength="183" x="1471.5" y="1783.9014">trip if attempts &gt; limit in window</text><polygon fill="#181818" points="676,1815.1094,666,1819.1094,676,1823.1094,672,1819.1094" style="stroke:#181818;stroke-width:1.0;"/><line style="stroke:#181818;stroke-width:1.0;" x1="670" x2="1670.5" y1="1819.1094" y2="1819.1094"/><text fill="#000000" font-family="sans-serif" font-size="13" lengthAdjust="spacing" textLength="232" x="682" y="1814.2529">log escalation + stop automated actions</text><polygon fill="#181818" points="2247,1845.4609,2257,1849.4609,2247,1853.4609,2251,1849.4609" style="stroke:#181818;stroke-width:1.0;"/><line style="stroke:#181818;stroke-width:1.0;" x1="892" x2="2253" y1="1849.4609" y2="1849.4609"/><text fill="#000000" font-family="sans-serif" font-size="13" lengthAdjust="spacing" textLength="181" x="899" y="1844.6045">SSE event: escalation_required</text><polygon fill="#181818" points="903,1882.8125,893,1886.8125,903,1890.8125,899,1886.8125" style="stroke:#181818;stroke-width:1.0;"/><line style="stroke:#181818;stroke-width:1.0;" x1="897" x2="2258" y1="1886.8125" y2="1886.8125"/><text fill="#000000" font-family="sans-serif" font-size="13" lengthAdjust="spacing" textLength="253" x="909" y="1881.9561">POST /api/acknowledge or /api/runbook-link</text><polygon fill="#181818" points="676,1913.1641,666,1917.1641,676,1921.1641,672,1917.1641" style="stroke:#181818;stroke-width:1.0;"/><line style="stroke:#181818;stroke-width:1.0;" x1="670" x2="891" y1="1917.1641" y2="1917.1641"/><text fill="#000000" font-family="sans-serif" font-size="13" lengthAdjust="spacing" textLength="203" x="682" y="1912.3076">record user ack / note / runbook ref</text><polygon fill="#FEFFDD" points="2164,1930.1641,2353,1930.1641,2363,1974.1641,2353,2019.1641,2164,2019.1641,2154,1974.1641,2164,1930.1641" style="stroke:#181818;stroke-width:0.5;"/><text fill="#000000" font-family="sans-serif" font-size="13" lengthAdjust="spacing" textLength="105" x="2166" y="1947.6592">Dashboard panes:</text><text fill="#000000" font-family="sans-serif" font-size="13" lengthAdjust="spacing" textLength="185" x="2166" y="1964.0107">&#8226; Current service health &amp; labels</text><text fill="#000000" font-family="sans-serif" font-size="13" lengthAdjust="spacing" textLength="177" x="2166" y="1980.3623">&#8226; Recent incidents and actions</text><text fill="#000000" font-family="sans-serif" font-size="13" lengthAdjust="spacing" textLength="94" x="2166" y="1996.7139">&#8226; SSE live ticker</text><text fill="#000000" font-family="sans-serif" font-size="13" lengthAdjust="spacing" textLength="155" x="2166" y="2013.0654">&#8226; Audit trail &amp; MTTR trends</text><!--SRC=[bLTBZjj84jth504lF2GiDJ7_WU2MeVgv1AYgP4arc0OAC59aIimkYidEJ5QLt6wWLts0HfzW5dESEOHFCY-IIOaIt8lHmYYJ6P4HBrwy23hb2acBhJ1kSADBvRIXBp__HWjPh0VNKXIgtD2i46wjpPQk2lrydkDi3xy_q63_enaUgbHLedIMebHlAsqbMMcUL2gf55jfIPNqzgrrqaZjTfKSZUAEXrvry42lxaoQI-kCG3p9U2DBzr32TZlGdHUZqIiIbiRlZstj3dTiCuek1cUrZH_AP8l7YQdB95lLrjiilbiS6rrhw-XQ5fKq5EdAmSnexGQLKKyqdasyrVLrBnDEh0HIUpM3nSR8nOTf2Arg7jWGriNPyGrNXR2Fx8gYztMfKctAE5XkQjNcCfiSMvt3oggrGbYNvKQLyg6CSbaRPN769XmAIYHjxCtFfrV7vZDTg7H7hsaXrjBjQ2fsqi25A539GG4lVKgrBZBzNDe-FQiIVmLdixlfiREvtCfCCVBi8NLAiyrAf8zwlUxJapHglMjin-VBOzkftbZEjj2RmLeLCkGxFQdTBL9yeMWvNIIBnMMB3oV-4Ynktqzk_tMAaQwpTI6CpDhQURFqy3mOdr_r43SetlnUDP02spE3j3qok9OoOVEL5YPhahcVdB9zAa79hClUlDHEaWO6u6CV5iSjDHsVaNL0Yg9Cfu_I34ABnCFUW4vuFIZ4YY9c7e3Qo2nkZe0b57aM9Is1c2_XRSi-Yd0FGdb3eiwK2s_BFQvumSWsZzCJv51HKU2DJ6iZgT86zfme9tS2mHzZQ4HfvH3yAGgPEieHGT9sV1D41w3nUngCkEzeI1zgQNPqTDJIanBaEnP5K7R0_7gIVRAvVgP5lLhmgMG9tKZkWUaLeF6FKEmtPAJ8AAcCJli9sf-YyzbzdxPoswTCeUicTt7F5yYeJUv8hraqRg5eqBTFU2gUsoY-_F8h_GYfAA5xdwtJLIMppsk1sxBFTVbOeaz-UYZFQbLayEyCcX3T9PyawzvAk3G_0gohO_Hi55yHp99Wb2a3z8eTEKr1Ksn0w-8CO4rk5vVpvUzS1gngonADena88qtSmvy36CF5aC2uaxhzAQPbhif7rAsHbXsLyhbrAX1xUAvIuJkyMqJlUyGo0z_84TQtylcC8uaQ3t7F5uwBpsB49zj4vbmav8fZGMWe-kzlBYQC5f3865du6xtHMuJghPp2w82o0BWtUyha42vjTgtx9fxhlIpYv5uOsSfpSIlItEldbv__JKr5YPdZpEwZV4cbpF20op-vFPzSNDukcvDW4dqQMCGdHuymkBkxwGJ2kkcDRYvlxkRVVPpDBnUB-_bbkAKGLONgH8Q9IYDoEOgRGswzpTLqF9jDRjyVeHJAVLA4298W2yjYNQvL9ijKnhrC7c5zNES_ntGXKnmTee_34B3D4EXs9SOHReRKushv98eQtg8CXXRNpkKFDTYB5jlV7nBl-su_p8vsT7JAp-E3_RQ9-HuDeKJ0nK0iiu_1d_tcUwjBigMeW0yuyVembhZ1WOQZC78yNnmeGFOfzLVioHBSivZtHE5ep6CEPLtjmgiU-LnzVo3r8VwTpU_-UNaHvjcYaccVDZMqtu0Yl3r4M_7oaMa22dQc7VDIrwoF1RQ12ragt9FGXTaDvdNPkMVAVGW-JN09C42QCPy3MURtjuoitf0kYvrNscvD6S3Zclubfd7g6Cfc42DWgeJBknNrQOUa44KeCEOn5_W5mexw7dADSMH_8Gzj8em1h0b70uW4Rs2jkQL2frWWTcnCtdKhDwOXpFmGNnGAF0JndU1vucqwmw1Prw2058xGMzHrvC_nYS71kQqB5yaNvK2E31ninm8xPV2Qu6T6PxNFaAvHHraY0MRhOS9HxXUz9fR3uCPjVOzwintCEla7vd6T_A1YM1_bxg749Ndt4czxc00TWAwlaSFiRh6a9BXBGiBlaE-tFcdGOLoxN1lroQCtR2zgGeMB_misVsK3szv-JuRESnzXIrLiQk6TvP74zEI5RGznIAU9ejdvW2TebzDXRiSarbZqstRfTKhfBn_xKxvutpOMxmwkkpeOe8gQPQPFQ3biJjo9MMsQSK7KQHhcCCTvt3X_ZMcAEwYkCZ_baTVzn1UIrxtZZv3c96Qs55kA_AwqRoE_VBBEr3PlHoOhUI8gbJGcYIYauM-WODcOmFP-uYKMDiCJTGzyU2X_L5cVHQrFNcwHOn3YVTu_VIMvlyLqrnAxgbUGEPAyH3GhLNSvxYJg6-NeyBuxEEfxd-uvZzNSkSeEa-IjmrOaYm6pV9JW8_4_X8FdLqUu6Ft2EdYzNCuM57sudvmVOT1eRbq5T546lyz-9Qc_ntG50UOrDCTIuZz34qgLIMkq_mhcMAAx2MsChYkQh8_4aSUynPDAeknPiJjmh1N4IfUeY09qWQeOxjyh1-uUpZRJCTnzrbpz3UP1zIv2iUBkJF5U-HMfDGcusLRWmeWAjKNO-01knkG9rxd7f8McDb7png8hxEzERpdkjWaEFFHSOke6FXsCFx84OwFCleBfFsAw4MMDNDVQV_y1i0w2JSsR4WMT0gk12fPUB4iRgAHfdc4_NcdzYE_7yh5T8SACnvwKKGtHvzKJ5VFgcb2mm87rIL2Nl_iTXO-eY_P336CEkzomvpUo6giYnj5-6Mp4vtNJDDQVcJThfYfv0seNsnP6Fi3W5Tpes1THJlzip1g3we4qy7QpNCxn7y1e3olz_m00]--></g></svg>