<?xml version="1.0" encoding="utf-8" ?>
<svg baseProfile="full" height="650px" version="1.1" width="1000px" xmlns="http://www.w3.org/2000/svg" xmlns:ev="http://www.w3.org/2001/xml-events" xmlns:xlink="http://www.w3.org/1999/xlink"><defs /><rect fill="#f3f5f7" height="100%" width="100%" x="0" y="0" /><text fill="#222" font-size="28px" text-anchor="middle" x="50%" y="40">Smart-Monitor Full Architecture</text><rect fill="#ffffff" height="520" rx="12" ry="12" stroke="#444" stroke-width="2" width="860" x="70" y="80" /><text fill="#333" font-size="16px" x="90" y="105">VM (Linux host)</text><rect fill="#e6f2ff" height="80" rx="8" ry="8" stroke="#336699" stroke-width="1.5" width="180" x="90" y="140" /><text fill="#123" font-size="14px" x="100" y="170">Cloudflare Tunnel</text><text fill="#123" font-size="12px" x="100" y="190">HTTPS entry</text><rect fill="#e8f5e9" height="80" rx="8" ry="8" stroke="#2e7d32" stroke-width="1.5" width="160" x="310" y="140" /><text fill="#1b5e20" font-size="14px" x="320" y="170">Nginx Reverse Proxy</text><text fill="#1b5e20" font-size="12px" x="320" y="190">TLS termination</text><rect fill="#fff3e0" height="80" rx="8" ry="8" stroke="#ef6c00" stroke-width="1.5" width="160" x="510" y="140" /><text fill="#e65100" font-size="14px" x="520" y="170">Flask API + SSE</text><text fill="#e65100" font-size="12px" x="520" y="190">/api/*, /stream/alerts</text><rect fill="#ede7f6" height="80" rx="8" ry="8" stroke="#5e35b1" stroke-width="1.5" width="180" x="710" y="140" /><text fill="#4527a0" font-size="14px" x="720" y="170">Smart-Monitor UI</text><text fill="#4527a0" font-size="12px" x="720" y="190">HTMX + charts</text><rect fill="#e0f7fa" height="110" rx="10" ry="10" stroke="#00838f" stroke-width="1.5" width="220" x="310" y="260" /><text fill="#004d40" font-size="14px" x="320" y="290">Orchestrator</text><text fill="#004d40" font-size="12px" x="320" y="310">agents, checks, auto-remediation</text><text fill="#004d40" font-size="12px" x="320" y="330">talks to hosts + clusters</text><rect fill="#e1f5fe" height="110" rx="10" ry="10" stroke="#0277bd" stroke-width="1.5" width="190" x="600" y="260" /><text fill="#01579b" font-size="14px" x="610" y="290">Postgres Telemetry DB</text><text fill="#01579b" font-size="12px" x="610" y="310">metrics, events, logs</text><rect fill="#f9fbe7" height="170" rx="10" ry="10" stroke="#9e9d24" stroke-width="1.5" width="320" x="120" y="400" /><text fill="#827717" font-size="14px" x="130" y="430">Kind Kubernetes Clusters</text><text fill="#827717" font-size="12px" x="140" y="450">kind-sm-control-plane</text><text fill="#827717" font-size="12px" x="140" y="468">kind-sm-worker-1/2</text><text fill="#827717" font-size="12px" x="140" y="486">workloads, pods, services</text><rect fill="#fffde7" height="170" rx="10" ry="10" stroke="#f9a825" stroke-width="1.5" width="280" x="480" y="400" /><text fill="#f57f17" font-size="14px" x="490" y="430">Agents / Exporters</text><text fill="#f57f17" font-size="12px" x="500" y="450">system metrics, services,</text><text fill="#f57f17" font-size="12px" x="500" y="468">network checks, SMART disk</text><line stroke="#555" stroke-width="1.5" x1="270" x2="310" y1="180" y2="180" /><line stroke="#555" stroke-width="1.5" x1="470" x2="510" y1="180" y2="180" /><line stroke="#555" stroke-width="1.5" x1="670" x2="710" y1="180" y2="180" /><line stroke="#555" stroke-width="1.5" x1="420" x2="420" y1="220" y2="260" /><line stroke="#555" stroke-width="1.5" x1="600" x2="695" y1="220" y2="260" /><line stroke="#555" stroke-width="1.5" x1="360" x2="360" y1="370" y2="400" /><line stroke="#555" stroke-width="1.5" x1="520" x2="520" y1="370" y2="400" /></svg>