<?xml version="1.0" encoding="utf-8" ?>
<svg baseProfile="full" height="500px" version="1.1" width="900px" xmlns="http://www.w3.org/2000/svg" xmlns:ev="http://www.w3.org/2001/xml-events" xmlns:xlink="http://www.w3.org/1999/xlink"><defs /><rect fill="#f3f5f7" height="100%" width="100%" x="0" y="0" /><text fill="#222" font-size="26px" text-anchor="middle" x="50%" y="40">Smart-Monitor State Engine</text><rect fill="#ffffff" height="90" rx="10" ry="10" stroke="#444" stroke-width="1.3" width="320" x="90" y="90" /><text fill="#222" font-size="15px" x="105" y="118">Desired State</text><text fill="#555" font-size="12px" x="105" y="140">What config says should be true</text><rect fill="#ffffff" height="90" rx="10" ry="10" stroke="#444" stroke-width="1.3" width="320" x="490" y="90" /><text fill="#222" font-size="15px" x="505" y="118">Observed State</text><text fill="#555" font-size="12px" x="505" y="140">What checks and agents report</text><rect fill="#ffffff" height="90" rx="10" ry="10" stroke="#444" stroke-width="1.3" width="320" x="90" y="240" /><text fill="#222" font-size="15px" x="105" y="268">Last Known Good</text><text fill="#555" font-size="12px" x="105" y="290">Last healthy snapshot</text><rect fill="#ffffff" height="90" rx="10" ry="10" stroke="#444" stroke-width="1.3" width="320" x="490" y="240" /><text fill="#222" font-size="15px" x="505" y="268">Failure Reason</text><text fill="#555" font-size="12px" x="505" y="290">Why state diverged</text><line stroke="#777" stroke-width="1.5" x1="410" x2="450" y1="135" y2="135" /><polygon fill="#777" points="450,130 450,140 458,135" /><line stroke="#777" stroke-width="1.5" x1="250" x2="250" y1="180" y2="230" /><polygon fill="#777" points="245,230 255,230 250,238" /><line stroke="#777" stroke-width="1.5" x1="640" x2="640" y1="180" y2="230" /><polygon fill="#777" points="635,230 645,230 640,238" /></svg>