<?xml version="1.0" encoding="utf-8" ?>
<svg baseProfile="full" height="500px" version="1.1" width="900px" xmlns="http://www.w3.org/2000/svg" xmlns:ev="http://www.w3.org/2001/xml-events" xmlns:xlink="http://www.w3.org/1999/xlink"><defs /><rect fill="#f3f5f7" height="100%" width="100%" x="0" y="0" /><text fill="#222" font-size="26px" text-anchor="middle" x="50%" y="40">Smart-Monitor Minimal Architecture</text><rect fill="#ffffff" height="380" rx="12" ry="12" stroke="#444" stroke-width="2" width="740" x="80" y="70" /><text fill="#333" font-size="16px" x="100" y="95">VM (Linux host)</text><rect fill="#e8f0fe" height="120" rx="10" ry="10" stroke="#3949ab" stroke-width="1.2" width="150" x="110" y="130" /><text fill="#1a237e" font-size="13px" x="120" y="160">Cloudflare Tunnel</text><text fill="#1a237e" font-size="11px" x="120" y="180">HTTPS edge</text><rect fill="#e8f0fe" height="120" rx="10" ry="10" stroke="#3949ab" stroke-width="1.2" width="150" x="280" y="130" /><text fill="#1a237e" font-size="13px" x="290" y="160">Nginx Reverse Proxy</text><text fill="#1a237e" font-size="11px" x="290" y="180">TLS termination</text><rect fill="#e8f0fe" height="120" rx="10" ry="10" stroke="#3949ab" stroke-width="1.2" width="150" x="450" y="130" /><text fill="#1a237e" font-size="13px" x="460" y="160">Flask API + UI</text><text fill="#1a237e" font-size="11px" x="460" y="180">API + SSE + dashboard</text><rect fill="#e8f0fe" height="120" rx="10" ry="10" stroke="#3949ab" stroke-width="1.2" width="150" x="620" y="130" /><text fill="#1a237e" font-size="13px" x="630" y="160">Orchestrator</text><text fill="#1a237e" font-size="11px" x="630" y="180">checks + remediation</text><rect fill="#e3f2fd" height="120" rx="10" ry="10" stroke="#1565c0" stroke-width="1.2" width="220" x="320" y="290" /><text fill="#0d47a1" font-size="14px" x="340" y="320">Postgres DB</text><text fill="#0d47a1" font-size="12px" x="340" y="340">metrics, events, logs</text><line stroke="#555" stroke-width="1.5" x1="260" x2="280" y1="190" y2="190" /><line stroke="#555" stroke-width="1.5" x1="430" x2="450" y1="190" y2="190" /><line stroke="#555" stroke-width="1.5" x1="600" x2="620" y1="190" y2="190" /><line stroke="#555" stroke-width="1.5" x1="430" x2="430" y1="250" y2="290" /></svg>