<?xml version="1.0" encoding="utf-8" ?>
<svg baseProfile="full" height="500px" version="1.1" width="900px" xmlns="http://www.w3.org/2000/svg" xmlns:ev="http://www.w3.org/2001/xml-events" xmlns:xlink="http://www.w3.org/1999/xlink"><defs /><rect fill="#f3f5f7" height="100%" width="100%" x="0" y="0" /><text fill="#222" font-size="26px" text-anchor="middle" x="50%" y="40">Smart-Monitor Chaos Test Matrix</text><text fill="#111" font-size="14px" x="80" y="80">Area</text><text fill="#111" font-size="14px" x="280" y="80">Examples</text><text fill="#111" font-size="14px" x="550" y="80">What Smart-Monitor Should Do</text><rect fill="#ffffff" height="40" stroke="#ddd" stroke-width="1" width="760" x="70" y="90" /><text fill="#222" font-size="13px" x="80" y="110">CPU / Memory</text><text fill="#444" font-size="12px" x="280" y="110">infinite loop, memory leak</text><text fill="#444" font-size="12px" x="550" y="110">detect spike, kill offender, verify</text><rect fill="#ffffff" height="40" stroke="#ddd" stroke-width="1" width="760" x="70" y="140" /><text fill="#222" font-size="13px" x="80" y="160">Disk</text><text fill="#444" font-size="12px" x="280" y="160">fill partition, slow disk</text><text fill="#444" font-size="12px" x="550" y="160">alert threshold, cleanup, protect DB</text><rect fill="#ffffff" height="40" stroke="#ddd" stroke-width="1" width="760" x="70" y="190" /><text fill="#222" font-size="13px" x="80" y="210">Network</text><text fill="#444" font-size="12px" x="280" y="210">drop DNS, block API port</text><text fill="#444" font-size="12px" x="550" y="210">mark host unhealthy, retry, fallback</text><rect fill="#ffffff" height="40" stroke="#ddd" stroke-width="1" width="760" x="70" y="240" /><text fill="#222" font-size="13px" x="80" y="260">Kubernetes</text><text fill="#444" font-size="12px" x="280" y="260">stop kubelet, break CNI</text><text fill="#444" font-size="12px" x="550" y="260">flag cluster unhealthy, escalate</text><rect fill="#ffffff" height="40" stroke="#ddd" stroke-width="1" width="760" x="70" y="290" /><text fill="#222" font-size="13px" x="80" y="310">Services</text><text fill="#444" font-size="12px" x="280" y="310">kill web/API process</text><text fill="#444" font-size="12px" x="550" y="310">restart service, track failures</text></svg>